<svg width="1024" height="1024" viewBox="0 0 1024 1024" fill="none" xmlns="http://www.w3.org/2000/svg">
<path d="M724.087 854C697.421 854 675.287 850 657.687 842C640.621 834 628.087 820.933 620.087 802.8C612.087 784.667 608.087 760.4 608.087 730V386C608.087 351.333 601.421 324.4 588.087 305.2C575.287 286 552.621 276.4 520.087 276.4C496.087 276.4 476.887 282.533 462.487 294.8C448.621 306.533 438.487 322.267 432.087 342C426.221 361.733 423.287 383.067 423.287 406V574.8C423.287 590.267 426.221 602 432.087 610C437.954 617.467 445.687 622.533 455.287 625.2C465.421 627.333 476.354 628.4 488.087 628.4H491.287V662H276.087V628.4H282.487C294.754 628.4 305.687 627.067 315.287 624.4C325.421 621.733 333.421 616.4 339.287 608.4C345.154 599.867 348.087 587.333 348.087 570.8V321.2C348.087 305.2 345.154 293.467 339.287 286C333.421 278 325.421 272.933 315.287 270.8C305.687 268.133 295.021 266.8 283.287 266.8H280.087V233.2H409.687L420.087 298H424.087C435.287 277.733 447.021 262.533 459.287 252.4C472.087 241.733 485.954 234.533 500.887 230.8C515.821 227.067 531.821 225.2 548.887 225.2C591.021 225.2 623.821 237.733 647.287 262.8C671.287 287.333 683.287 327.067 683.287 382V732.4C683.287 759.6 688.887 779.6 700.087 792.4C711.287 805.2 725.954 811.6 744.087 811.6C753.687 811.6 762.487 811.067 770.487 810C778.487 808.933 786.754 807.6 795.287 806V841.2C788.354 844.4 777.954 847.333 764.087 850C750.221 852.667 736.887 854 724.087 854Z" fill="#FBBF23"/>
</svg>
